<svg width="57" height="56" viewBox="0 0 57 56" fill="none" xmlns="http://www.w3.org/2000/svg">
<g id="icon/action/assignment_turned_in_24px">
<path id="icon/action/assignment_turned_in_24px_2" fill-rule="evenodd" clip-rule="evenodd" d="M44.8333 6.9987H35.08C34.1 4.29203 31.5333 2.33203 28.5 2.33203C25.4667 2.33203 22.9 4.29203 21.92 6.9987H12.1667C9.6 6.9987 7.5 9.0987 7.5 11.6654V44.332C7.5 46.8987 9.6 48.9987 12.1667 48.9987H44.8333C47.4 48.9987 49.5 46.8987 49.5 44.332V11.6654C49.5 9.0987 47.4 6.9987 44.8333 6.9987ZM28.5 6.9987C29.7833 6.9987 30.8333 8.0487 30.8333 9.33203C30.8333 10.6154 29.7833 11.6654 28.5 11.6654C27.2167 11.6654 26.1667 10.6154 26.1667 9.33203C26.1667 8.0487 27.2167 6.9987 28.5 6.9987ZM14.5 30.332L23.8333 39.6654L42.5 20.9987L39.21 17.6854L23.8333 33.062L17.79 27.042L14.5 30.332Z" fill="#16A34A"/>
</g>
</svg>
