<svg width="56" height="56" viewBox="0 0 56 56" fill="none" xmlns="http://www.w3.org/2000/svg">
<g id="icon/action/assignment_turned_in_24px">
<path id="icon/action/assignment_turned_in_24px_2" fill-rule="evenodd" clip-rule="evenodd" d="M44.3333 6.9987H34.58C33.6 4.29203 31.0333 2.33203 28 2.33203C24.9667 2.33203 22.4 4.29203 21.42 6.9987H11.6667C9.1 6.9987 7 9.0987 7 11.6654V44.332C7 46.8987 9.1 48.9987 11.6667 48.9987H44.3333C46.9 48.9987 49 46.8987 49 44.332V11.6654C49 9.0987 46.9 6.9987 44.3333 6.9987ZM28 6.9987C29.2833 6.9987 30.3333 8.0487 30.3333 9.33203C30.3333 10.6154 29.2833 11.6654 28 11.6654C26.7167 11.6654 25.6667 10.6154 25.6667 9.33203C25.6667 8.0487 26.7167 6.9987 28 6.9987ZM14 30.332L23.3333 39.6654L42 20.9987L38.71 17.6854L23.3333 33.062L17.29 27.042L14 30.332Z" fill="#4B5563"/>
</g>
</svg>
