<svg width="22" height="23" viewBox="0 0 22 23" fill="none" xmlns="http://www.w3.org/2000/svg">
<g id="attach_file" clip-path="url(#clip0_12219_19155)">
<path id="Vector" d="M7.04603 14.396L9.99596 6.29111C10.5629 4.73357 12.1434 3.88018 13.5279 4.38409C14.9123 4.888 15.5745 6.55768 15.0077 8.11522L11.8012 16.9248C11.4472 17.8974 10.4583 18.4314 9.59377 18.1167C8.72925 17.8021 8.31491 16.7574 8.6689 15.7848L11.3623 8.38469C11.5034 7.99707 11.9007 7.78253 12.2453 7.90794C12.5898 8.03334 12.7563 8.4531 12.6152 8.84072L10.1783 15.536L11.118 15.8781L13.5549 9.18274C13.9089 8.21016 13.4946 7.16544 12.6301 6.85078C11.7655 6.53612 10.7766 7.07009 10.4226 8.04267L7.72921 15.4428C7.16231 17.0003 7.82452 18.67 9.209 19.1739C10.5935 19.6778 12.174 18.8244 12.7409 17.2669L15.9473 8.45724C16.7271 6.31474 15.8171 4.0201 13.9126 3.32694C12.0082 2.63377 9.83607 3.8066 9.05627 5.94909L6.10634 14.0539L7.04603 14.396Z" fill="#6B7280"/>
</g>
<defs>
<clipPath id="clip0_12219_19155">
<rect width="16" height="18" fill="white" transform="translate(15.8438 22.3867) rotate(-160)"/>
</clipPath>
</defs>
</svg>
