<svg width="24" height="25" viewBox="0 0 24 25" fill="none" xmlns="http://www.w3.org/2000/svg">
<g id="picture_as_pdf" clip-path="url(#clip0_12219_19397)">
<path id="Vector" d="M20 2.38672H8C6.9 2.38672 6 3.28672 6 4.38672V16.3867C6 17.4867 6.9 18.3867 8 18.3867H20C21.1 18.3867 22 17.4867 22 16.3867V4.38672C22 3.28672 21.1 2.38672 20 2.38672ZM11.5 9.88672C11.5 10.7167 10.83 11.3867 10 11.3867H9V13.3867H7.5V7.38672H10C10.83 7.38672 11.5 8.05672 11.5 8.88672V9.88672ZM16.5 11.8867C16.5 12.7167 15.83 13.3867 15 13.3867H12.5V7.38672H15C15.83 7.38672 16.5 8.05672 16.5 8.88672V11.8867ZM20.5 8.88672H19V9.88672H20.5V11.3867H19V13.3867H17.5V7.38672H20.5V8.88672ZM9 9.88672H10V8.88672H9V9.88672ZM4 6.38672H2V20.3867C2 21.4867 2.9 22.3867 4 22.3867H18V20.3867H4V6.38672ZM14 11.8867H15V8.88672H14V11.8867Z" fill="#B91C1C"/>
</g>
<defs>
<clipPath id="clip0_12219_19397">
<rect width="24" height="24" fill="white" transform="translate(0 0.386719)"/>
</clipPath>
</defs>
</svg>
